<?xml version="1.0" encoding="UTF-8" standalone="no"?>
<svg
   xmlns:dc="http://purl.org/dc/elements/1.1/"
   xmlns:cc="http://creativecommons.org/ns#"
   xmlns:rdf="http://www.w3.org/1999/02/22-rdf-syntax-ns#"
   xmlns:svg="http://www.w3.org/2000/svg"
   xmlns="http://www.w3.org/2000/svg"
   xmlns:sodipodi="http://sodipodi.sourceforge.net/DTD/sodipodi-0.dtd"
   xmlns:inkscape="http://www.inkscape.org/namespaces/inkscape"
   version="1.1"
   id="svg8"
   sodipodi:docname="Icons.svg"
   inkscape:version="0.92.1 r15371">
  <metadata
     id="metadata12">
    <rdf:RDF>
      <cc:Work
         rdf:about="">
        <dc:format>image/svg+xml</dc:format>
        <dc:type
           rdf:resource="http://purl.org/dc/dcmitype/StillImage" />
        <dc:title></dc:title>
      </cc:Work>
    </rdf:RDF>
  </metadata>
  <sodipodi:namedview
     pagecolor="#ffffff"
     bordercolor="#666666"
     borderopacity="1"
     objecttolerance="10"
     gridtolerance="10000"
     guidetolerance="10"
     inkscape:pageopacity="0"
     inkscape:pageshadow="2"
     inkscape:window-width="1920"
     inkscape:window-height="1043"
     id="namedview10"
     showgrid="true"
     inkscape:pagecheckerboard="true"
     showguides="false"
     inkscape:snap-bbox="false"
     inkscape:snap-path-clip="true"
     inkscape:zoom="4"
     inkscape:cx="766.84774"
     inkscape:cy="75.561863"
     inkscape:window-x="0"
     inkscape:window-y="0"
     inkscape:window-maximized="1"
     inkscape:current-layer="g6">
    <inkscape:grid
       type="xygrid"
       id="grid3684"
       empspacing="1"
       dotted="false"
       spacingx="0.1"
       spacingy="0.1" />
  </sodipodi:namedview>
  <defs
     id="defs2" />
  <g
     id="g6">
    <path
       d="m 734.05,2.1 v 28 q 0,0.85 -0.6,1.45 -0.6,0.55 -1.4,0.55 h -8 q -0.85,0 -1.45,-0.55 -0.55,-0.6 -0.55,-1.45 V 2.15 q 0,-0.85 0.55,-1.45000002 0.6,-0.6 1.45,-0.6 h 8 q 0.8,0 1.4,0.6 Q 734.05,1.3 734.05,2.1 m -5.55,55.9 0.4,-0.5 q 1.4,-1.4 3.3,-1.4 1.95,0 3.35,1.4 1.35,1.4 1.35,3.35 0,1.9 -1.35,3.3 1.55,0.65 2.85,2 2.55,2.6 2.55,6.25 v 0.05 q 0,1.95 -2.55,3.25 -1.7,0.95 -3.85,1.25 V 76.8 76.75 q 0,-5.9 -4.15,-10.05 v -0.05 l -2.05,-1.7 0.3,-0.7 0.2,-0.1 -0.15,-0.1 q 0.4,-1.3 0.4,-2.65 0,-1.85 -0.6,-3.4 m -2.6,8.2 q 1.55,0.85 2.85,2.15 3.45,3.5 3.45,8.4 v 0.05 0.3 q -0.2,2.4 -3.45,4.1 -3.4,1.8 -8.25,1.8 -4.85,0 -8.3,-1.8 -3.2,-1.7 -3.4,-4.1 v -0.3 -0.05 q 0,-4.9 3.4,-8.4 1.35,-1.3 2.85,-2.15 L 716,65.75 q -1.75,-1.8 -1.75,-4.35 0,-2.65 1.85,-4.5 1.8,-1.9 4.4,-1.9 2.6,0 4.45,1.9 1.8,1.85 1.8,4.5 0,2.55 -1.75,4.35 l 0.9,0.45 M 717.45,0.69999998 Q 718.05,1.3 718.05,2.1 v 28 q 0,0.85 -0.6,1.45 -0.6,0.55 -1.4,0.55 h -8 q -0.85,0 -1.45,-0.55 -0.55,-0.6 -0.55,-1.45 V 2.15 q 0,-0.85 0.55,-1.45000002 0.6,-0.6 1.45,-0.6 h 8 q 0.8,0 1.4,0.6 M 686,2 v 28 q 0,0.85 -0.6,1.45 Q 684.8,32 684,32 h -4 q -0.85,0 -1.45,-0.55 Q 678,30.85 678,30 V 2.05 Q 678,1.2 678.55,0.59999998 679.15,-1.6884542e-8 680,-1.6884542e-8 h 4 q 0.8,0 1.4,0.599999996884542 Q 686,1.2 686,2 M 666.55,0.59999998 Q 667.15,-1.6884542e-8 668,-1.6884542e-8 h 4 q 0.8,0 1.4,0.599999996884542 Q 674,1.2 674,2 v 28 q 0,0.85 -0.6,1.45 Q 672.8,32 672,32 h -4 q -0.85,0 -1.45,-0.55 Q 666,30.85 666,30 V 2.05 q 0,-0.85 0.55,-1.45000002 m -12,0 Q 655.15,-1.6884542e-8 656,-1.6884542e-8 h 4 q 0.8,0 1.4,0.599999996884542 Q 662,1.2 662,2 v 28 q 0,0.85 -0.6,1.45 Q 660.8,32 660,32 h -4 q -0.85,0 -1.45,-0.55 Q 654,30.85 654,30 V 2.05 q 0,-0.85 0.55,-1.45000002 M 672.5,61.45 q 0,-2.3 1.6,-3.85 1.6,-1.6 3.8,-1.6 2.25,0 3.85,1.6 1.55,1.55 1.55,3.85 0,2.2 -1.55,3.75 1.8,0.75 3.3,2.25 2.95,2.95 2.95,7.2 0,2.25 -2.95,3.8 Q 682.1,80 677.9,80 l -5.15,-0.7 q 2.65,-1.95 2.45,-4.65 0,-4.8 -3.2,-8.3 0.95,-0.7 2.05,-1.15 -1.55,-1.55 -1.55,-3.75 m -5.55,3.75 q 1.8,0.75 3.3,2.25 l 0.25,0.25 q 2.7,2.9 2.7,6.95 0,2.15 -2.7,3.65 l -0.25,0.15 Q 667.3,80 663.1,80 q -4.2,0 -7.15,-1.55 -2.9,-1.55 -2.95,-3.8 0,-4.25 2.95,-7.2 1.5,-1.5 3.25,-2.25 -1.5,-1.55 -1.5,-3.75 0,-2.3 1.6,-3.85 1.55,-1.6 3.8,-1.6 2.25,0 3.85,1.6 1.55,1.55 1.55,3.85 0,2.2 -1.55,3.75 m 45.6,-7.2 q -0.65,1.55 -0.65,3.4 0,1.35 0.4,2.6 l -0.15,0.15 0.25,0.15 0.25,0.65 q -1.1,0.75 -2.05,1.7 v 0.05 q -4.15,4.15 -4.15,10.05 v 0.2 Q 704.3,76.65 702.6,75.7 700.05,74.4 700,72.45 V 72.4 q 0,-3.65 2.6,-6.25 1.25,-1.35 2.85,-2 -1.35,-1.4 -1.35,-3.3 0,-1.95 1.35,-3.35 1.4,-1.4 3.35,-1.4 1.95,0 3.35,1.4 l 0.4,0.5 m 8.45,49.7 q -4.15,0 -7.1,2.9 -2.95,2.95 -2.95,7.1 0,4.2 2.95,7.1 2.95,2.95 7.1,2.95 4.15,0 7.1,-2.95 h 0.05 q 2.9,-2.9 2.9,-7.1 0,-4.15 -2.9,-7.1 -3,-2.9 -7.15,-2.9 m 0,4.35 q 2.35,0 4,1.65 1.65,1.65 1.65,4 0,2.35 -1.65,4 -1.65,1.7 -4,1.7 -2.4,0 -4.05,-1.7 -1.6,-1.65 -1.6,-4 0,-2.35 1.6,-4 1.65,-1.65 4.05,-1.65 m -11.3,-5.7 q 4.7,-4.65 11.3,-4.65 6.6,0 11.3,4.7 4.7,4.7 4.7,11.3 0,6.65 -4.7,11.35 -4.7,4.65 -11.3,4.65 -6.6,0 -11.3,-4.65 -4.7,-4.7 -4.7,-11.35 0,-6.6 4.65,-11.3 h 0.05 v -0.05 m -23.9,5.45 q 1.2,2.85 1.2,6.2 0,0.5 -0.35,0.85 -0.35,0.35 -0.85,0.35 h -3.3 l -0.4,2.05 3.1,1.3 0.65,0.65 q 0.2,0.45 0,0.9 -1.15,2.85 -3.55,5.25 l -0.8,0.3 -0.85,-0.3 -2.35,-2.35 -1.75,1.2 1.3,3.05 q 0.2,0.45 0,0.9 l -0.65,0.65 q -2.85,1.2 -6.2,1.2 -0.5,0 -0.85,-0.35 -0.35,-0.35 -0.35,-0.85 v -3.3 l -2.05,-0.35 -1.25,3.05 -0.65,0.65 q -0.45,0.2 -0.9,0 -2.9,-1.15 -5.25,-3.5 -0.35,-0.35 -0.35,-0.85 0,-0.5 0.35,-0.85 l 2.35,-2.35 -1.2,-1.75 -3.1,1.3 q -0.45,0.2 -0.9,0 l -0.65,-0.65 q -1.2,-2.85 -1.2,-6.2 0,-0.5 0.35,-0.85 0.35,-0.35 0.85,-0.35 h 3.3 l 0.4,-2.05 -3.1,-1.25 -0.65,-0.65 q -0.2,-0.45 0,-0.9 1.15,-2.9 3.55,-5.25 0.35,-0.35 0.8,-0.35 0.5,0 0.85,0.35 l 2.35,2.35 q 0.85,-0.7 1.75,-1.2 l -1.3,-3.1 q -0.2,-0.45 0,-0.9 0.2,-0.45 0.65,-0.65 2.85,-1.2 6.2,-1.2 0.5,0 0.85,0.35 0.35,0.35 0.35,0.85 v 3.3 l 2.05,0.4 1.3,-3.1 q 0.15,-0.45 0.6,-0.65 0.45,-0.2 0.95,0 1.85,0.75 3.55,2.05 l 1.65,1.5 q 0.35,0.35 0.35,0.85 l -0.35,0.8 -2.3,2.35 1.15,1.75 3.1,-1.3 q 0.45,-0.2 0.9,0 l 0.65,0.65 M 671,110.25 q -3.2,0 -5.5,2.25 -2.25,2.3 -2.25,5.5 0,3.2 2.25,5.5 2.3,2.25 5.5,2.25 3.2,0 5.5,-2.25 2.25,-2.3 2.25,-5.5 0,-3.2 -2.25,-5.5 -2.3,-2.25 -5.5,-2.25 m 0,3.9 q 1.6,0 2.75,1.1 1.15,1.15 1.15,2.75 0,1.6 -1.15,2.75 -1.15,1.15 -2.75,1.15 -1.6,0 -2.75,-1.15 -1.1,-1.15 -1.1,-2.75 0,-1.6 1.1,-2.75 1.15,-1.1 2.75,-1.1 m 3,49.85 v 8 h -8 v -8 h -4 v -4 l 8,-8 8,8 v 4 h -4 m -14,4 q 0.8,0 1.4,0.6 0.6,0.6 0.6,1.4 v 6 h 16 v -5.95 q 0,-0.85 0.55,-1.45 0.6,-0.6 1.45,-0.6 h 4 q 0.8,0 1.4,0.6 0.6,0.6 0.6,1.4 v 12 q 0,0.85 -0.6,1.45 -0.6,0.55 -1.4,0.55 h -28 q -0.85,0 -1.45,-0.55 Q 654,182.85 654,182 v -11.95 q 0,-0.85 0.55,-1.45 0.6,-0.6 1.45,-0.6 h 4 m 57.5,-8.45 q -1.45,-1.5 -1.45,-3.55 0,-2.05 1.45,-3.5 1.5,-1.5 3.55,-1.5 2.1,0 3.55,1.5 h -0.05 q 1.5,1.5 1.5,3.5 0,2.15 -1.5,3.6 v -0.05 q -1.45,1.45 -3.5,1.45 -2.1,0 -3.55,-1.45 m 5.55,3.45 q 1.2,0 2.1,0.9 0.9,0.9 0.9,2.1 v 13 h 1 q 1.2,0 2.1,0.9 0.9,0.9 0.9,2.1 v 2 l -0.3,0.7 -0.7,0.3 h -16 q -0.4,0 -0.7,-0.3 -0.3,-0.3 -0.3,-0.7 v -1.95 q 0,-1.25 0.85,-2.1 v -0.05 q 0.9,-0.9 2.15,-0.9 h 1 v -10 h -3 q -0.4,0 -0.7,-0.3 -0.3,-0.3 -0.3,-0.7 v -4 q 0,-0.4 0.3,-0.7 0.3,-0.3 0.7,-0.3 h 10 m 4.65,51.3 0.3,0.7 v 8 l -0.3,0.7 q -0.3,0.3 -0.7,0.3 h -7 v 5 l -0.3,0.7 -0.7,0.3 h -4 l -0.7,-0.3 -10,-10 q -0.3,-0.3 -0.3,-0.7 0,-0.4 0.3,-0.7 l 10,-10 q 0.3,-0.3 0.7,-0.3 h 4 q 0.4,0 0.7,0.3 l 0.3,0.7 v 5 h 7 q 0.4,0 0.7,0.3 M 727,264 q 0,-2.5 -1.75,-4.25 Q 723.5,258 721,258 q -2.55,0 -4.3,1.75 -1.7,1.75 -1.7,4.25 0,2.45 1.7,4.2 1.75,1.8 4.3,1.8 2.5,0 4.25,-1.8 1.75,-1.75 1.75,-4.2 m 7.45,-58.4 q 0.55,0.6 0.55,1.45 V 231 q 0,0.85 -0.55,1.45 -0.6,0.55 -1.45,0.55 h -10 v -4 h 8 v -20 h -8 v -4 h 10 q 0.85,0 1.45,0.6 M 733,263.95 q 0,4 -2.3,7.1 l 0.05,0.05 5.05,8.8 0.15,0.65 -0.5,0.55 -0.65,0.15 -4.7,-1.25 -1.25,4.7 -0.5,0.5 -0.65,0.1 -0.55,-0.4 -5.05,-8.8 -0.05,-0.15 -1.05,0.05 -1.1,-0.05 -0.1,0.15 -5.05,8.8 -0.55,0.4 -0.65,-0.1 -0.5,-0.5 -1.25,-4.7 -4.7,1.25 -0.65,-0.15 -0.5,-0.55 q -0.05,-0.35 0.15,-0.65 l 5.05,-8.8 0.1,-0.1 q -2.25,-3.05 -2.25,-7.05 0,-5 3.4,-8.5 3.5,-3.45 8.6,-3.45 5,0 8.5,3.45 3.5,3.5 3.5,8.5 M 688,219 l -0.3,0.7 -10,10 -0.7,0.3 h -4 l -0.7,-0.3 -0.3,-0.7 v -5 h -7 q -0.4,0 -0.7,-0.3 -0.3,-0.3 -0.3,-0.7 v -8 q 0,-0.4 0.3,-0.7 0.3,-0.3 0.7,-0.3 h 7 v -5 q 0,-0.4 0.3,-0.7 0.3,-0.3 0.7,-0.3 h 4 q 0.4,0 0.7,0.3 l 10,10 0.3,0.7 m -19,-10 h -8 v 20 h 8 v 4 h -10 q -0.85,0 -1.45,-0.55 Q 657,231.85 657,231 v -23.95 q 0,-0.85 0.55,-1.45 0.6,-0.6 1.45,-0.6 h 10 v 4 m 14,54.95 q 0,4.95 -3.5,8.45 -1.6,1.65 -3.5,2.55 v 10.1 l -0.25,0.65 -0.65,0.25 -0.65,-0.2 -3.45,-3.45 -3.45,3.45 -0.65,0.2 -0.65,-0.25 -0.25,-0.65 V 275 q -1.95,-0.95 -3.6,-2.6 -3.4,-3.5 -3.4,-8.45 0,-5 3.4,-8.5 3.5,-3.45 8.6,-3.45 5,0 8.5,3.45 3.5,3.5 3.5,8.5 M 671,258 q -2.55,0 -4.3,1.75 -1.7,1.75 -1.7,4.25 0,2.45 1.7,4.2 1.75,1.8 4.3,1.8 2.5,0 4.25,-1.8 1.75,-1.75 1.75,-4.2 0,-2.5 -1.75,-4.25 Q 673.5,258 671,258 m 30,48 h 39 q 0.8,0 1.4,0.6 0.6,0.6 0.6,1.4 v 20 q 0,0.85 -0.6,1.45 -0.6,0.55 -1.4,0.55 h -39 q -0.85,0 -1.45,-0.55 Q 699,328.85 699,328 v -19.95 q 0,-0.85 0.55,-1.45 0.6,-0.6 1.45,-0.6 m -9.6,0.6 q 0.6,0.6 0.6,1.4 v 20 q 0,0.85 -0.6,1.45 l -0.45,0.35 -0.95,0.2 h -39 q -0.85,0 -1.45,-0.55 Q 649,328.85 649,328 v -19.95 q 0,-0.85 0.55,-1.45 0.6,-0.6 1.45,-0.6 h 39 l 0.95,0.25 0.45,0.35 m 38.85,13.15 -0.8,-0.85 q -0.55,0.75 -1.5,0.75 -0.65,0 -1.15,-0.45 -0.45,-0.5 -0.45,-1.3 0,-0.75 0.5,-1.2 0.5,-0.5 1.2,-0.5 0.85,0 1.45,0.75 l 0.8,-0.85 q -0.95,-1.05 -2.3,-1.05 -1.25,0 -2.1,0.8 -0.85,0.85 -0.85,2.1 0,1.25 0.85,2.05 0.8,0.8 2.1,0.8 1.3,0 2.25,-1.05 m 4.95,-3.5 v -1.1 h -4.45 v 1.1 h 1.6 v 4.5 h 1.25 v -4.5 h 1.6 m -64.85,2.2 h -1.4 l 0.7,-1.65 0.7,1.65 m -0.1,-3.3 h -1.2 l -2.45,5.6 h 1.35 l 0.5,-1.2 h 2.35 l 0.5,1.2 h 1.35 l -2.4,-5.6 m 4.3,3.8 h 0.85 l 1.25,1.8 h 1.5 l -1.4,-2 q 1.05,-0.4 1.05,-1.75 0,-0.95 -0.55,-1.4 -0.55,-0.45 -1.85,-0.45 h -2.1 v 5.6 h 1.25 v -1.8 m 0,-2.7 h 0.9 l 0.85,0.15 0.25,0.6 -0.25,0.7 -0.85,0.2 h -0.9 v -1.65 m 6.9,0 h 1.6 v -1.1 h -4.45 v 1.1 h 1.6 v 4.5 h 1.25 v -4.5 m -22.95,0.4 0.2,-0.4 0.5,-0.1 q 0.75,0 1.5,0.55 l 0.65,-0.95 -1,-0.55 -1.1,-0.15 q -0.9,0 -1.45,0.4 -0.55,0.45 -0.55,1.25 0,0.8 0.45,1.15 0.45,0.4 1.4,0.6 l 0.85,0.3 0.2,0.4 -0.2,0.4 -0.55,0.15 q -0.75,0 -1.65,-0.8 l -0.75,0.95 q 1.05,0.95 2.4,0.95 l 1.45,-0.45 q 0.6,-0.45 0.6,-1.2 0,-0.75 -0.45,-1.15 l -1.25,-0.6 -1,-0.35 -0.25,-0.4 m 3.5,-1.5 v 1.1 h 1.6 v 4.5 h 1.25 v -4.5 h 1.6 v -1.1 H 662 m 47.3,4 q 0,-0.75 -0.45,-1.15 -0.45,-0.4 -1.25,-0.6 l -1,-0.35 -0.25,-0.4 0.2,-0.4 0.5,-0.1 q 0.75,0 1.5,0.55 l 0.65,-0.95 q -0.45,-0.35 -1,-0.55 l -1.1,-0.15 q -0.9,0 -1.45,0.4 -0.55,0.45 -0.55,1.25 0,0.8 0.45,1.15 0.45,0.4 1.4,0.6 l 0.85,0.3 0.2,0.4 -0.2,0.4 -0.55,0.15 q -0.75,0 -1.65,-0.8 l -0.75,0.95 q 1.05,0.95 2.4,0.95 0.9,0 1.45,-0.45 0.6,-0.45 0.6,-1.2 m 7.55,0.5 v -4.5 h -1.25 v 5.6 h 3.6 v -1.1 h -2.35 m -2.5,-3.4 v -1.1 h -4 v 5.6 h 4.1 v -1.1 h -2.85 v -1.15 h 2.5 v -1.1 h -2.5 v -1.15 h 2.75 m 7.05,3.4 v -1.15 h 2.5 v -1.1 h -2.5 v -1.15 h 2.75 v -1.1 h -4 v 5.6 h 4.1 v -1.1 H 721.4 M 640,6 q 0,0.85 -0.6,1.45 Q 638.8,8 638,8 H 606 Q 605.15,8 604.55,7.45 604,6.85 604,6 V 2.05 Q 604,1.2 604.55,0.59999998 605.15,-1.6884542e-8 606,-1.6884542e-8 h 32 q 0.8,0 1.4,0.599999996884542 Q 640,1.2 640,2 v 4 m -0.6,6.6 q 0.6,0.6 0.6,1.4 v 4 q 0,0.85 -0.6,1.45 Q 638.8,20 638,20 h -32 q -0.85,0 -1.45,-0.55 Q 604,18.85 604,18 v -3.95 q 0,-0.85 0.55,-1.45 0.6,-0.6 1.45,-0.6 h 32 q 0.8,0 1.4,0.6 M 604.55,31.45 Q 604,30.85 604,30 v -3.95 q 0,-0.85 0.55,-1.45 0.6,-0.6 1.45,-0.6 h 32 q 0.8,0 1.4,0.6 0.6,0.6 0.6,1.4 v 4 q 0,0.85 -0.6,1.45 Q 638.8,32 638,32 h -32 q -0.85,0 -1.45,-0.55 M 585.4,12.6 q 0.6,0.6 0.6,1.4 v 4 q 0,0.85 -0.6,1.45 Q 584.8,20 584,20 h -16 q -0.85,0 -1.45,-0.55 Q 566,18.85 566,18 v -3.95 q 0,-0.85 0.55,-1.45 0.6,-0.6 1.45,-0.6 h 16 q 0.8,0 1.4,0.6 M 586,6 q 0,0.85 -0.6,1.45 Q 584.8,8 584,8 H 568 Q 567.15,8 566.55,7.45 566,6.85 566,6 V 2.05 Q 566,1.2 566.55,0.59999998 567.15,-1.6884542e-8 568,-1.6884542e-8 h 16 q 0.8,0 1.4,0.599999996884542 Q 586,1.2 586,2 v 4 m -24,0 q 0,0.85 -0.6,1.45 Q 560.8,8 560,8 h -4 Q 555.15,8 554.55,7.45 554,6.85 554,6 V 2.05 Q 554,1.2 554.55,0.59999998 555.15,-1.6884542e-8 556,-1.6884542e-8 h 4 q 0.8,0 1.4,0.599999996884542 Q 562,1.2 562,2 v 4 m 0,24 q 0,0.85 -0.6,1.45 Q 560.8,32 560,32 h -4 q -0.85,0 -1.45,-0.55 Q 554,30.85 554,30 v -3.95 q 0,-0.85 0.55,-1.45 0.6,-0.6 1.45,-0.6 h 4 q 0.8,0 1.4,0.6 0.6,0.6 0.6,1.4 v 4 m 4.55,1.45 Q 566,30.85 566,30 v -3.95 q 0,-0.85 0.55,-1.45 0.6,-0.6 1.45,-0.6 h 16 q 0.8,0 1.4,0.6 0.6,0.6 0.6,1.4 v 4 q 0,0.85 -0.6,1.45 Q 584.8,32 584,32 h -16 q -0.85,0 -1.45,-0.55 M 562,18 q 0,0.85 -0.6,1.45 Q 560.8,20 560,20 h -4 q -0.85,0 -1.45,-0.55 Q 554,18.85 554,18 v -3.95 q 0,-0.85 0.55,-1.45 0.6,-0.6 1.45,-0.6 h 4 q 0.8,0 1.4,0.6 0.6,0.6 0.6,1.4 v 4 m 13.5,37.5 q 3.5,3.5 3.5,8.55 0,1.85 -0.45,3.5 l 1.3,1.35 0.3,0.3 0.35,0.35 4.9,4.9 q 1.6,1.7 1.65,3.95 v 0.25 q -0.05,2.25 -1.65,3.8 -1.35,1.4 -3.15,1.65 l -0.8,0.05 -0.75,-0.05 q -1.8,-0.25 -3.25,-1.6 l -2.5,-2.5 v -0.05 l -4.25,-4.3 0.4,0.45 -0.55,-0.55 L 567,76 q -5,0 -8.55,-3.5 Q 555,69 555,64.05 q 0,-5 3.45,-8.55 3.6,-3.5 8.55,-3.5 5.05,0 8.5,3.5 m -0.6,8.4 q -0.05,-3.25 -2.3,-5.5 v -0.05 q -2.3,-2.25 -5.6,-2.25 -3.3,0 -5.65,2.25 l -0.05,0.05 q -2.25,2.3 -2.25,5.65 0,3.25 2.3,5.55 2.3,2.25 5.55,2.3 h 0.1 q 3.3,0 5.55,-2.3 h 0.05 q 2.3,-2.3 2.3,-5.55 V 63.9 m 50.45,0.35 q 2.5,1.05 4.55,3 4.1,3.95 4.1,9.6 0,3 -4.1,5.05 -4.05,2.1 -9.9,2.1 -5.8,0 -9.9,-2.1 -4.05,-2.05 -4.1,-5.05 0,-5.65 4.1,-9.6 2.05,-1.95 4.55,-3 -2.1,-2.1 -2.1,-5 0,-3 2.2,-5.1 Q 616.9,52 620,52 q 3.15,0 5.3,2.15 2.2,2.1 2.2,5.1 0,2.9 -2.15,5 M 536,2 v 4 q 0,0.85 -0.6,1.45 Q 534.8,8 534,8 h -4 Q 529.15,8 528.55,7.45 528,6.85 528,6 V 2.05 Q 528,1.2 528.55,0.59999998 529.15,-1.6884542e-8 530,-1.6884542e-8 h 4 q 0.8,0 1.4,0.599999996884542 Q 536,1.2 536,2 m -12,0 v 4 q 0,0.85 -0.6,1.45 Q 522.8,8 522,8 h -4 Q 517.15,8 516.55,7.45 516,6.85 516,6 V 2.05 Q 516,1.2 516.55,0.59999998 517.15,-1.6884542e-8 518,-1.6884542e-8 h 4 q 0.8,0 1.4,0.599999996884542 Q 524,1.2 524,2 m 6,10 h 4 q 0.8,0 1.4,0.6 0.6,0.6 0.6,1.4 v 4 q 0,0.85 -0.6,1.45 Q 534.8,20 534,20 h -4 q -0.85,0 -1.45,-0.55 Q 528,18.85 528,18 v -3.95 q 0,-0.85 0.55,-1.45 0.6,-0.6 1.45,-0.6 m -6.6,0.6 q 0.6,0.6 0.6,1.4 v 4 q 0,0.85 -0.6,1.45 Q 522.8,20 522,20 h -4 q -0.85,0 -1.45,-0.55 Q 516,18.85 516,18 v -3.95 q 0,-0.85 0.55,-1.45 0.6,-0.6 1.45,-0.6 h 4 q 0.8,0 1.4,0.6 M 536,26 v 4 q 0,0.85 -0.6,1.45 Q 534.8,32 534,32 h -4 q -0.85,0 -1.45,-0.55 Q 528,30.85 528,30 v -3.95 q 0,-0.85 0.55,-1.45 0.6,-0.6 1.45,-0.6 h 4 q 0.8,0 1.4,0.6 0.6,0.6 0.6,1.4 m -12.6,-1.4 q 0.6,0.6 0.6,1.4 v 4 q 0,0.85 -0.6,1.45 Q 522.8,32 522,32 h -4 q -0.85,0 -1.45,-0.55 Q 516,30.85 516,30 v -3.95 q 0,-0.85 0.55,-1.45 0.6,-0.6 1.45,-0.6 h 4 q 0.8,0 1.4,0.6 M 512,2 v 4 q 0,0.85 -0.6,1.45 Q 510.8,8 510,8 h -4 Q 505.15,8 504.55,7.45 504,6.85 504,6 V 2.05 Q 504,1.2 504.55,0.59999998 505.15,-1.6884542e-8 506,-1.6884542e-8 h 4 q 0.8,0 1.4,0.599999996884542 Q 512,1.2 512,2 m -2,10 q 0.8,0 1.4,0.6 0.6,0.6 0.6,1.4 v 4 q 0,0.85 -0.6,1.45 Q 510.8,20 510,20 h -4 q -0.85,0 -1.45,-0.55 Q 504,18.85 504,18 v -3.95 q 0,-0.85 0.55,-1.45 0.6,-0.6 1.45,-0.6 h 4 m -24.95,4.1 -0.3,0.7 -12,12 -0.7,0.3 q -0.4,0 -0.7,-0.3 -0.3,-0.3 -0.3,-0.7 v -24 q 0,-0.4 0.3,-0.7 0.3,-0.3 0.7,-0.3 0.4,0 0.7,0.3 l 12,12 0.3,0.7 M 512,26 v 4 q 0,0.85 -0.6,1.45 Q 510.8,32 510,32 h -4 q -0.85,0 -1.45,-0.55 Q 504,30.85 504,30 v -3.95 q 0,-0.85 0.55,-1.45 0.6,-0.6 1.45,-0.6 h 4 q 0.8,0 1.4,0.6 0.6,0.6 0.6,1.4 m -0.65,32.35 -0.05,0.05 q -2.25,2.3 -2.25,5.65 0,3.25 2.3,5.55 2.3,2.25 5.55,2.3 h 0.1 q 3.3,0 5.55,-2.3 h 0.05 q 2.3,-2.3 2.3,-5.55 V 63.9 q -0.05,-3.25 -2.3,-5.5 v -0.05 q -2.3,-2.25 -5.6,-2.25 -3.3,0 -5.65,2.25 m -6.35,5.7 q 0,-5 3.45,-8.55 3.6,-3.5 8.55,-3.5 5.05,0 8.5,3.5 3.5,3.5 3.5,8.55 0,1.85 -0.45,3.5 l 1.3,1.35 0.3,0.3 0.35,0.35 4.9,4.9 q 1.6,1.7 1.65,3.95 v 0.25 q -0.05,2.25 -1.65,3.8 -1.35,1.4 -3.15,1.65 l -0.8,0.05 -0.75,-0.05 q -1.8,-0.25 -3.25,-1.6 l -2.5,-2.5 v -0.05 l -4.25,-4.3 0.4,0.45 -0.55,-0.55 L 517,76 q -5,0 -8.55,-3.5 Q 505,69 505,64.05 m 16.05,1.05 v 3 h -8 v -3 h 8 m -8,-4 h 8 v 3 h -8 v -3 m -31.6,23.05 -0.75,-0.05 q -1.8,-0.25 -3.25,-1.6 l -6.75,-6.85 0.4,0.45 -0.55,-0.55 L 467,76 q -5,0 -8.55,-3.5 Q 455,69 455,64.05 q 0,-5 3.45,-8.55 3.6,-3.5 8.55,-3.5 5.05,0 8.5,3.5 3.5,3.5 3.5,8.55 0,1.85 -0.45,3.5 l 1.3,1.35 0.3,0.3 0.35,0.35 4.9,4.9 q 1.6,1.7 1.65,3.95 v 0.25 q -0.05,2.25 -1.65,3.8 -1.35,1.4 -3.15,1.65 l -0.8,0.05 M 528,110 q 0,1.7 -1.2,2.85 -1.15,1.15 -2.8,1.15 v 8 h 10 q 0.8,0 1.4,0.6 0.6,0.6 0.6,1.4 v 10 h -32 v -9.95 q 0,-0.85 0.55,-1.45 0.6,-0.6 1.45,-0.6 h 10 v -8 q -1.7,0 -2.85,-1.15 Q 512,111.65 512,110 v -4 q 0,-1.65 1.15,-2.8 1.2,-1.2 2.85,-1.2 h 8 q 1.65,0 2.8,1.2 1.2,1.2 1.2,2.8 v 4 m 4,16 h -4 v 4 h 4 v -4 m 28.1,6 -0.45,-10.1 -5.65,-8.45 9.6,-3.55 6.45,-7.9 6.35,7.9 9.6,3.55 -5.65,8.45 -0.55,10.1 -9.75,-2.65 -9.95,2.65 M 486,112 v 10 q 0,1.7 -1.2,2.85 -1.15,1.15 -2.8,1.15 h -8 v 4 h 6 q 0.8,0 1.4,0.6 0.6,0.6 0.6,1.4 v 2 h -24 v -1.95 q 0,-0.85 0.55,-1.45 0.6,-0.6 1.45,-0.6 h 6 v -4 h -8 q -1.7,0 -2.85,-1.15 Q 454,123.65 454,122 v -9.95 q 0,-0.85 0.55,-1.45 0.6,-0.6 1.45,-0.6 h 4 v -4 h 20 v 4 h 4 q 0.8,0 1.4,0.6 0.6,0.6 0.6,1.4 m -4,2 h -2 v 8 h 2 v -8 m 36.95,47.3 -0.4,0.3 Q 518,162.2 518,163.05 V 172 q 0,0.85 0.55,1.45 l 0.4,0.3 1,0.25 H 521 q 0.8,0 1.4,-0.55 0.6,-0.6 0.6,-1.45 v -9 q 0,-0.8 -0.6,-1.4 -0.6,-0.6 -1.4,-0.6 h -1.05 q -0.55,0 -1,0.3 m 0.6,-8.05 q 0.95,-0.45 1.95,0 h 0.05 q 0.85,0.35 1.3,1.3 l 13.75,24.7 q 0.45,0.95 0.4,2 v 0.05 q -0.15,1.15 -0.9,1.85 h 0.05 q -0.8,0.85 -1.9,0.85 h -27.5 q -1.15,0 -1.9,-0.9 -0.7,-0.75 -0.85,-1.8 -0.15,-1.05 0.35,-2.05 h 0.05 l 13.75,-24.7 v -0.05 q 0.5,-0.9 1.35,-1.25 h 0.05 M 520.5,176 q -1.05,0 -1.8,0.75 -0.7,0.7 -0.7,1.75 0,1 0.7,1.75 0.75,0.75 1.8,0.75 1.05,0 1.75,-0.75 v 0.05 q 0.75,-0.75 0.75,-1.8 0,-1 -0.75,-1.75 h 0.05 Q 521.6,176 520.5,176 M 560,152 h 4.95 v 4 H 562 v 24 h 2.95 v 4 H 560 q -0.85,0 -1.45,-0.55 Q 558,182.85 558,182 v -27.95 q 0,-0.85 0.55,-1.45 0.6,-0.6 1.45,-0.6 m 63,-46.85 q 2.75,2.5 3.2,6.15 v 0.1 0.05 1.45 l -0.1,1.15 8.95,8.85 q 1.7,1.5 1.9,3.7 l 0.05,0.9 q 0,2.8 -1.9,4.65 l -0.05,0.05 q -1.75,1.8 -4.7,1.8 -2.65,0 -4.65,-1.8 v -0.05 l -5.95,-5.9 -0.15,-0.4 -2.95,-2.8 -2.65,-0.15 0.1,0.05 q -3.5,-0.55 -5.95,-2.9 V 120 q -3.55,-3.7 -3.1,-8.2 0.05,-1.45 0.6,-2.9 0.1,-0.3 0.35,-0.45 l 0.5,-0.1 0.4,0.25 5.7,5.7 1.1,0.6 1,-0.55 v -0.05 l 2.4,-2.5 q 0.75,-0.7 0.4,-1.5 l -0.45,-0.7 -5.7,-5.45 -0.2,-0.4 q -0.1,-0.3 0.05,-0.5 0.1,-0.25 0.35,-0.35 0.65,-0.35 1.25,-0.55 h 0.05 l 4.75,-0.15 q 3.1,0.55 5.45,2.95 H 623 m 9.15,20.95 q -1.6,-1.35 -3.25,0 v 0.05 l -0.45,0.85 -0.05,0.1 -0.1,0.6 q 0,0.85 0.6,1.6 0.75,0.6 1.65,0.6 0.95,0 1.6,-0.6 0.75,-0.75 0.75,-1.6 l -0.1,-0.65 -0.6,-0.9 -0.05,-0.05 m -58.75,43.35 q 0.6,-0.6 0.6,-1.45 0,-0.8 -0.6,-1.4 h 0.05 q -0.6,-0.6 -1.45,-0.6 -0.8,0 -1.4,0.6 -0.6,0.6 -0.6,1.4 0,0.85 0.6,1.45 0.55,0.55 1.4,0.55 0.85,0 1.4,-0.55 m -5.85,-14 q 0.6,-0.7 1.4,-0.85 L 583,151.9 v 30 l -14.05,2.7 q -0.8,0.15 -1.4,-0.3 Q 567,183.8 567,182.95 V 157 q 0,-0.85 0.55,-1.55 M 628,160 v 4 l -8,8 -8,-8 v -4 h 4 v -8 h 8 v 8 h 4 m -16,10 v 6 h 16 v -5.95 q 0,-0.85 0.55,-1.45 0.6,-0.6 1.45,-0.6 h 4 q 0.8,0 1.4,0.6 0.6,0.6 0.6,1.4 v 12 q 0,0.85 -0.6,1.45 -0.6,0.55 -1.4,0.55 h -28 q -0.85,0 -1.45,-0.55 Q 604,182.85 604,182 v -11.95 q 0,-0.85 0.55,-1.45 0.6,-0.6 1.45,-0.6 h 4 q 0.8,0 1.4,0.6 0.6,0.6 0.6,1.4 M 468.05,3.1 q 0.4,0 0.7,0.3 l 0.3,0.7 v 24 l -0.3,0.7 -0.7,0.3 q -0.4,0 -0.7,-0.3 l -12,-12 q -0.3,-0.3 -0.3,-0.7 0,-0.4 0.3,-0.7 l 12,-12 q 0.3,-0.3 0.7,-0.3 m -35.3,10.3 0.3,0.7 -0.3,0.7 -0.7,0.3 h -24 l -0.7,-0.3 q -0.3,-0.3 -0.3,-0.7 0,-0.4 0.3,-0.7 l 12,-12 q 0.3,-0.3 0.7,-0.3 0.4,0 0.7,0.3 l 12,12 m -25.7,4.7 q 0,-0.4 0.3,-0.7 0.3,-0.3 0.7,-0.3 h 24 q 0.4,0 0.7,0.3 l 0.3,0.7 -0.3,0.7 -12,12 -0.7,0.3 -0.7,-0.3 -12,-12 q -0.3,-0.3 -0.3,-0.7 m 17.85,45.8 q -0.05,-3.25 -2.3,-5.5 v -0.05 q -2.3,-2.25 -5.6,-2.25 -3.3,0 -5.65,2.25 l -0.05,0.05 q -2.25,2.3 -2.25,5.65 0,3.25 2.3,5.55 2.3,2.25 5.55,2.3 h 0.1 q 3.3,0 5.55,-2.3 h 0.05 q 2.3,-2.3 2.3,-5.55 V 63.9 m 0.6,-8.4 q 3.5,3.5 3.5,8.55 0,1.85 -0.45,3.5 l 1.3,1.35 0.3,0.3 0.35,0.35 4.9,4.9 q 1.6,1.7 1.65,3.95 v 0.25 q -0.05,2.25 -1.65,3.8 -1.35,1.4 -3.15,1.65 l -0.8,0.05 -0.75,-0.05 q -1.8,-0.25 -3.25,-1.6 l -2.5,-2.5 v -0.05 l -4.25,-4.3 0.4,0.45 -0.55,-0.55 L 417,76 q -5,0 -8.55,-3.5 Q 405,69 405,64.05 q 0,-5 3.45,-8.55 3.6,-3.5 8.55,-3.5 5.05,0 8.5,3.5 m -4.45,10.6 h -8 v -4 h 8 v 4 m 44,-6 h 4 v 2 h 2 v 4 h -2 v 2 h -4 v -2 h -2 v -4 h 2 v -2 m -3.7,-1.75 -0.05,0.05 q -2.25,2.3 -2.25,5.65 0,3.25 2.3,5.55 2.3,2.25 5.55,2.3 h 0.1 q 3.3,0 5.55,-2.3 h 0.05 q 2.3,-2.3 2.3,-5.55 V 63.9 q -0.05,-3.25 -2.3,-5.5 v -0.05 q -2.3,-2.25 -5.6,-2.25 -3.3,0 -5.65,2.25 M 387,9 v 2 L 371,27 355,11 V 9 Q 355,8.15 355.55,7.55 356.15,7 357,7 h 27.95 Q 385.8,7 386.4,7.55 387,8.15 387,9 M 335.4,26.45 Q 334.8,27 333.95,27 H 306 q -0.85,0 -1.45,-0.55 Q 304,25.85 304,25 v -2 l 16,-16 16,16 v 2 q 0,0.85 -0.6,1.45 M 357,64 h 10 v -9.95 q 0,-0.85 0.55,-1.45 0.6,-0.6 1.45,-0.6 h 4 q 0.8,0 1.4,0.6 0.6,0.6 0.6,1.4 v 10 h 10 q 0.8,0 1.4,0.6 0.6,0.6 0.6,1.4 v 4 q 0,0.85 -0.6,1.45 Q 385.8,72 385,72 h -10 v 10 q 0,0.85 -0.6,1.45 Q 373.8,84 373,84 h -4 q -0.85,0 -1.45,-0.55 Q 367,82.85 367,82 V 72 h -10 q -0.85,0 -1.45,-0.55 Q 355,70.85 355,70 v -3.95 q 0,-0.85 0.55,-1.45 0.6,-0.6 1.45,-0.6 m -20.6,0.6 q 0.6,0.6 0.6,1.4 v 4 q 0,0.85 -0.6,1.45 Q 335.8,72 335,72 h -28 q -0.85,0 -1.45,-0.55 Q 305,70.85 305,70 v -3.95 q 0,-0.85 0.55,-1.45 0.6,-0.6 1.45,-0.6 h 28 q 0.8,0 1.4,0.6 m 42.65,61.4 v 4 h 4 v -4 h -4 m -16,-16 h 12 v 12 h 12 v 12 h -36 v -16 h 12 v -8 m 8,4 h -4 v 4 h 4 v -4 M 333,102.95 v 4 h -4 v -4 h -16 v 14 h 24 v 18 q 0,0.85 -0.6,1.45 -0.6,0.55 -1.4,0.55 h -28 q -0.85,0 -1.45,-0.55 -0.55,-0.6 -0.55,-1.45 v -18 h 4 v -14 q 0,-1.65 1.15,-2.8 1.2,-1.2 2.85,-1.2 h 16 q 1.65,0 2.8,1.2 1.2,1.2 1.2,2.8 m -4,7 V 107 h 4 v 2.95 h -4 m -4,19 v -4 h -8 v 4 h 2 v 4 h 4 v -4 h 2 M 355.05,126 h 4 v -4 h -4 v 4 m 1.65,28.85 q 0.4,-0.8 1.2,-1 l 4.85,-1.3 -0.2,-0.9 q -0.25,-0.85 0.15,-1.55 0.4,-0.75 1.25,-0.95 l 5.8,-1.55 q 0.75,-0.2 1.5,0.25 0.7,0.35 0.9,1.15 l 0.25,0.95 4.85,-1.25 q 0.75,-0.25 1.55,0.2 0.7,0.4 0.9,1.2 l 1.5,5.7 -23.15,6.2 -1.5,-5.65 q -0.2,-0.85 0.15,-1.5 m -31.65,-0.75 h 5 q 0.8,0 1.4,0.6 0.6,0.6 0.6,1.4 v 5.9 h -24 v -5.85 q 0,-0.85 0.55,-1.45 0.6,-0.6 1.45,-0.6 h 5 v -0.95 q 0,-0.85 0.55,-1.45 0.6,-0.6 1.45,-0.6 h 6 q 0.8,0 1.4,0.6 0.6,0.6 0.6,1.4 v 1 m 5,32 h -20 q -0.85,0 -1.45,-0.55 -0.55,-0.6 -0.55,-1.45 V 164 h 24 v 20.1 q 0,0.85 -0.6,1.45 -0.6,0.55 -1.4,0.55 m 28,-2 V 164 h 24 v 20.1 q 0,0.85 -0.6,1.45 -0.6,0.55 -1.4,0.55 h -20 q -0.85,0 -1.45,-0.55 -0.55,-0.6 -0.55,-1.45 M 460,114 h -2 v 8 h 2 v -8 m -32.6,-8.4 q 0.6,0.6 0.6,1.4 v 11 h 8 q 0.8,0 1.4,0.6 0.6,0.6 0.6,1.4 v 11 q 0,0.85 -0.6,1.45 -0.6,0.55 -1.4,0.55 h -30 q -0.85,0 -1.45,-0.55 Q 404,131.85 404,131 v -10.95 q 0,-0.85 0.55,-1.45 0.6,-0.6 1.45,-0.6 h 7 v -10.95 q 0,-0.85 0.55,-1.45 0.6,-0.6 1.45,-0.6 h 11 q 0.8,0 1.4,0.6 m 5.6,21.1 q 0,-0.75 -0.45,-1.3 -0.45,-0.55 -1.3,-0.7 l 1.45,-1.6 V 122 h -4.3 v 1.35 h 2.2 l -1.35,1.55 v 1.1 l 0.95,-0.15 q 0.6,0 0.95,0.25 0.35,0.25 0.35,0.7 l -0.3,0.65 -0.8,0.2 q -0.75,0 -1.75,-0.7 L 428,128.2 q 1.2,0.8 2.35,0.8 1.15,0 1.9,-0.6 0.75,-0.6 0.75,-1.7 m -19.2,-2.6 q 0,-1 -0.7,-1.6 -0.65,-0.5 -1.55,-0.5 -0.9,0 -1.45,0.4 -0.6,0.35 -1.1,1.1 l 1.25,0.75 q 0.6,-0.95 1.2,-0.95 l 0.6,0.2 0.25,0.6 -0.3,0.75 -0.85,0.95 -2,2.05 V 129 H 414 v -1.4 h -2.75 l 1.25,-1.25 1,-1.25 0.3,-1 M 419,110 v 1.35 h 1.45 V 117 H 422 v -7 h -3 m 4.4,44.6 q 0.6,0.6 0.6,1.4 v 15 q 0,0.85 -0.6,1.45 -0.6,0.55 -1.4,0.55 h -4 q -0.85,0 -1.45,-0.55 Q 416,171.85 416,171 v -14.95 q 0,-0.85 0.55,-1.45 0.6,-0.6 1.45,-0.6 h 4 q 0.8,0 1.4,0.6 M 416,180 q 0,-1.65 1.15,-2.8 1.2,-1.2 2.85,-1.2 1.7,0 2.85,1.2 h -0.05 q 1.2,1.2 1.2,2.8 0,1.7 -1.2,2.9 v -0.05 q -1.15,1.15 -2.8,1.15 -1.7,0 -2.85,-1.15 Q 416,181.65 416,180 m 52.35,-16.15 q -0.35,0.3 -0.85,0.3 h -6.35 l -0.6,-0.2 -0.45,-0.45 -0.1,-0.75 q 0.4,-4.6 3.25,-7.15 2.8,-2.6 7.05,-2.6 4.25,0 6.95,2.3 2.75,2.45 2.75,6.7 0,2.05 -0.55,3 l -0.55,1.05 h 0.05 l -0.9,1.35 -0.05,0.05 -0.8,0.9 v 0.05 l -1.85,1.8 -0.75,0.85 h -0.3 v 0.05 h 0.3 l -0.2,0.25 -0.1,0.85 v 0.6 0.1 l -0.35,0.8 -0.9,0.3 h -6.1 l -0.85,-0.3 q -0.35,-0.35 -0.4,-0.8 v -2.8 h 0.15 q 0.1,-0.9 0.4,-1.45 0.45,-0.95 2,-2.6 l 2.7,-2.7 0.25,-1.1 -0.35,-1.1 q -0.25,-0.35 -0.7,-0.3 -0.45,0 -0.8,0.4 v -0.05 q -0.45,0.7 -0.55,1.85 l -0.45,0.8 M 470.4,176 q 1.9,0 3.25,1.25 1.35,1.3 1.35,3.2 0,1.9 -1.35,3.25 -1.35,1.3 -3.25,1.3 -1.8,0 -3.1,-1.3 -1.3,-1.3 -1.3,-3.25 0,-1.9 1.3,-3.2 1.3,-1.25 3.1,-1.25 m 3,34.6 q 0.6,0.6 0.6,1.4 v 20 q 0,0.85 -0.6,1.45 -0.6,0.55 -1.4,0.55 h -4 q -0.85,0 -1.45,-0.55 Q 466,232.85 466,232 v -19.95 q 0,-0.85 0.55,-1.45 0.6,-0.6 1.45,-0.6 h 4 q 0.8,0 1.4,0.6 M 456,234 q -0.85,0 -1.45,-0.55 Q 454,232.85 454,232 v -11.95 q 0,-0.85 0.55,-1.45 0.6,-0.6 1.45,-0.6 h 4 q 0.8,0 1.4,0.6 0.6,0.6 0.6,1.4 v 12 q 0,0.85 -0.6,1.45 -0.6,0.55 -1.4,0.55 h -4 m -44,-14 v 12 q 0,0.85 -0.6,1.45 -0.6,0.55 -1.4,0.55 h -4 q -0.85,0 -1.45,-0.55 Q 404,232.85 404,232 v -11.95 q 0,-0.85 0.55,-1.45 0.6,-0.6 1.45,-0.6 h 4 q 0.8,0 1.4,0.6 0.6,0.6 0.6,1.4 m 11.55,42.5 -1.8,2.15 2.8,10.45 h 8.5 q 1.2,0 2.1,0.9 0.9,0.9 0.9,2.1 v 6.85 l -0.3,0.7 -0.7,0.3 h -28 l -0.7,-0.3 q -0.3,-0.3 -0.3,-0.7 v -6.8 q 0,-1.25 0.85,-2.1 V 276 q 0.9,-0.9 2.15,-0.9 h 9.3 l -2.4,-8.9 q -1.35,-0.2 -2.7,-0.95 -2.65,-1.55 -3.45,-4.55 -0.8,-2.95 0.7,-5.7 1.65,-2.65 4.65,-3.45 3,-0.8 5.65,0.7 2.7,1.6 3.5,4.55 0.8,3 -0.75,5.7 m 47.55,-10.25 q 2.75,-1.5 5.75,-0.7 3,0.8 4.55,3.45 1.6,2.75 0.8,5.7 -0.8,3 -3.55,4.55 -1.25,0.75 -2.6,0.95 l -2.35,8.9 h 9.35 q 1.2,0 2.1,0.9 0.9,0.9 0.9,2.1 v 6.85 l -0.3,0.7 q -0.3,0.3 -0.7,0.3 h -28 l -0.7,-0.3 q -0.3,-0.3 -0.3,-0.7 v -6.8 q 0,-1.25 0.85,-2.1 V 276 q 0.9,-0.9 2.15,-0.9 h 8.4 l 2.8,-10.45 q -1.1,-0.85 -1.9,-2.15 -1.45,-2.7 -0.65,-5.7 0.8,-2.95 3.4,-4.55 m -89.2,-45.8 0.85,0.75 v 0.05 q 4.85,4.85 4.85,11.75 0,6.9 -4.85,11.7 l -0.05,0.05 q -4.8,4.85 -11.7,4.85 -6.9,0 -11.75,-4.85 -4.85,-4.85 -4.85,-11.75 0,-6.75 4.65,-11.55 l 0.2,-0.25 0.8,-0.7 q 0.3,-0.25 0.75,-0.2 0.4,0 0.65,0.35 l 2.55,3.05 0.25,0.7 -0.35,0.7 -0.4,0.35 -0.15,0.15 q -2.95,3.1 -2.95,7.4 0,4.4 3.1,7.5 3.1,3.1 7.5,3.1 4.3,0 7.35,-2.95 l 0.15,-0.15 0.15,-0.15 q 2.95,-3.05 2.95,-7.35 0,-4.4 -3.1,-7.5 h -0.05 l -0.45,-0.45 -0.35,-0.7 q 0,-0.4 0.25,-0.7 l 2.6,-3.05 q 0.25,-0.35 0.7,-0.35 l 0.7,0.2 m -8.25,-4.15 0.3,0.7 v 17 l -0.3,0.7 -0.7,0.3 h -4 l -0.7,-0.3 q -0.3,-0.3 -0.3,-0.7 v -17 q 0,-0.4 0.3,-0.7 0.3,-0.3 0.7,-0.3 h 4 q 0.4,0 0.7,0.3 M 332,202 q 0.85,0 1.45,0.6 0.55,0.6 0.55,1.45 V 232 q 0,0.85 -0.55,1.45 -0.6,0.55 -1.45,0.55 h -2 l -16,-16 16,-16 h 2 m -2.15,48 q 2.95,0 5.05,2.05 2.1,2.1 2.1,5.15 0,2.95 -2.1,5.05 -2.1,2.1 -5.05,2.1 -3,0 -5.1,-2.1 l -0.55,-0.6 -7,4.85 0.15,1.45 -0.25,1.9 7.05,4.5 0.6,-0.7 q 2.1,-2.1 5.1,-2.1 2.95,0 5.05,2.1 2.1,2.1 2.1,5.1 0,3 -2.1,5.1 -2.1,2.1 -5.05,2.1 -3,0 -5.1,-2.1 -2.05,-2.1 -2.05,-5.1 l 0.1,-1.05 -7.5,-4.75 -0.1,0.1 q -2.1,2.1 -5.05,2.1 -3,0 -5.1,-2.1 -2.05,-2.1 -2.05,-5.1 0,-3 2.05,-5.1 2.1,-2.1 5.1,-2.1 2.95,0 5.05,2.1 l 0.4,0.4 7.2,-4.9 -0.1,-1.15 q 0,-3.05 2.05,-5.15 2.1,-2.05 5.1,-2.05 m 26.2,34.95 v -6.8 q 0,-1.25 0.85,-2.1 V 276 q 0.9,-0.9 2.15,-0.9 H 368 v -9.7 q -1.25,-0.55 -2.35,-1.6 -2.15,-2.2 -2.15,-5.3 0,-3.1 2.15,-5.3 2.25,-2.2 5.35,-2.2 3.1,0 5.3,2.2 2.2,2.2 2.2,5.3 0,3.1 -2.2,5.3 -1.05,1.05 -2.3,1.6 v 9.7 h 9.05 q 1.2,0 2.1,0.9 0.9,0.9 0.9,2.1 v 6.85 l -0.3,0.7 -0.7,0.3 h -28 l -0.7,-0.3 q -0.3,-0.3 -0.3,-0.7 m -31.65,28.2 v -2.05 h -8.1 v 2.55 h 4.15 l -2.55,3 v 2.2 l 1.75,-0.4 q 1.2,0 1.85,0.5 0.65,0.5 0.65,1.3 0,0.85 -0.55,1.3 -0.6,0.4 -1.5,0.4 -1.45,0 -3.35,-1.3 l -1.2,2.35 q 2.25,1.55 4.45,1.55 2.2,0 3.6,-1.2 1.45,-1.2 1.45,-3.25 0,-1.4 -0.9,-2.5 -0.85,-1.05 -2.45,-1.35 l 2.7,-3.1 m 64.55,-7.2 v 24 h -38 v -19 q 0,-5 5,-5 h 33 M 369.4,312 H 367 v 11 h 7 v -2.2 h -4.6 V 312 m -33.65,-1.35 q 1.25,2.9 1.25,6.35 0,3.45 -1.25,6.35 -1.15,2.7 -3.45,4.95 -4.65,4.7 -11.3,4.7 -6.65,0 -11.35,-4.7 Q 305,323.65 305,317 q 0,-6.65 4.65,-11.35 4.7,-4.65 11.35,-4.65 6.65,0 11.3,4.65 2.3,2.3 3.45,5 m 115.2,0.3 q 0,-5 5,-5 h 33 v 24 h -38 v -19 m 14.6,1.8 h -2.2 v 9.8 h 6.35 v -1.95 h -4.15 v -7.85 m 8.95,0 h -3.95 v 1.9 h 1.85 v 7.9 h 2.1 v -9.8 m -35.55,-1.8 v 19 h -38 v -24 h 33 q 5,0 5,5 m -20.6,4.2 h 1.7 l 1.55,0.3 q 0.4,0.3 0.4,1.2 0,0.9 -0.4,1.3 -0.4,0.45 -1.6,0.45 h -1.65 v -3.25 M 419.9,313 H 416 v 11 h 2.35 v -3.5 h 1.55 l 2.25,3.5 H 425 l -2.6,-3.95 q 2,-0.75 2,-3.4 0,-1.95 -1.05,-2.75 Q 422.3,313 419.9,313 M 634,207.2 612.45,213 H 635 v 19 q 0,0.85 -0.6,1.45 -0.6,0.55 -1.4,0.55 h -26 q -0.85,0 -1.45,-0.55 Q 605,232.85 605,232 v -17 l -1.8,-6.7 q -0.25,-0.85 0.15,-1.55 0.45,-0.75 1.25,-1 l 25.1,-6.7 1.5,0.2 q 0.75,0.4 1,1.2 l 1.8,6.75 M 582.9,205 h -3.95 v 5 h 3.95 v -5 m 3.1,-1 v 28 q 0,0.85 -0.6,1.45 -0.6,0.55 -1.4,0.55 h -28 q -0.85,0 -1.45,-0.55 Q 554,232.85 554,232 v -27.95 q 0,-0.85 0.55,-1.45 0.6,-0.6 1.45,-0.6 h 28 q 0.8,0 1.4,0.6 0.6,0.6 0.6,1.4 m -22.05,1 v 12 h 12 v -12 h -12 m 15,26 h 3.95 v -5 h -3.95 v 5 m 0,-11 h 3.95 v -5 h -3.95 v 5 m -3,11 v -11 h -12 v 11 h 12 m 9.8,25.15 0.05,0.05 q 1.1,1.2 0.9,2.85 v 0.1 l -2.5,13.25 -0.05,0.05 q -0.2,1.2 -1.5,2.05 l -0.15,0.05 -2,0.45 h -15 q -1.25,0 -2.05,-0.5 h -0.05 q -1.35,-0.85 -1.55,-2.05 v -0.05 l -2.3,-12.45 H 555 q -0.4,0 -0.7,-0.3 -0.3,-0.3 -0.3,-0.7 v -2.9 -0.1 q 0,-0.4 0.3,-0.7 0.3,-0.3 0.7,-0.3 h 11.95 l 0.3,0.05 H 583 q 1.65,0 2.75,1.15 M 562,281 q 0,-1.65 1.15,-2.85 1.2,-1.15 2.85,-1.15 1.65,0 2.8,1.15 1.2,1.2 1.2,2.85 0,1.65 -1.2,2.8 -1.15,1.2 -2.8,1.2 -1.65,0 -2.85,-1.2 Q 562,282.65 562,281 m 14,0 q 0,-1.65 1.15,-2.85 1.2,-1.15 2.85,-1.15 1.65,0 2.8,1.15 1.2,1.2 1.2,2.85 0,1.65 -1.2,2.8 -1.15,1.2 -2.8,1.2 -1.65,0 -2.85,-1.2 Q 576,282.65 576,281 m 43.95,-25.05 q 0,1.25 -0.85,2.15 l -7,7 q -0.9,0.85 -2.15,0.85 -1.25,0 -2.1,-0.85 -0.9,-0.9 -0.9,-2.15 0,-1.25 0.9,-2.1 l 7,-7 q 0.85,-0.9 2.1,-0.9 1.25,0 2.15,0.9 0.85,0.85 0.85,2.1 m 7.15,-2.1 7,7 q 0.85,0.85 0.85,2.1 0,1.25 -0.85,2.15 -0.9,0.85 -2.15,0.85 -1.25,0 -2.1,-0.85 l -7,-7 q -0.9,-0.9 -0.9,-2.15 0,-1.25 0.9,-2.1 0.85,-0.9 2.1,-0.9 1.25,0 2.15,0.9 m -17.7,29.8 q -0.55,-0.35 -0.6,-0.85 l -2.45,-13 q -0.15,-0.7 0.3,-1.25 0.5,-0.55 1.35,-0.55 h 26 q 0.8,0 1.3,0.55 0.5,0.55 0.4,1.2 l -2.45,13.05 -0.65,0.85 q -0.55,0.35 -1.2,0.35 h -20.8 l -1.2,-0.35 M 560.9,210 v -5 h -3.95 v 5 h 3.95 M 530,202 h 4 q 0.8,0 1.4,0.6 0.6,0.6 0.6,1.4 v 28 q 0,0.85 -0.6,1.45 -0.6,0.55 -1.4,0.55 h -4 q -0.85,0 -1.45,-0.55 Q 528,232.85 528,232 v -27.95 q 0,-0.85 0.55,-1.45 0.6,-0.6 1.45,-0.6 m -6.6,8.6 q 0.6,0.6 0.6,1.4 v 20 q 0,0.85 -0.6,1.45 -0.6,0.55 -1.4,0.55 h -4 q -0.85,0 -1.45,-0.55 Q 516,232.85 516,232 v -19.95 q 0,-0.85 0.55,-1.45 0.6,-0.6 1.45,-0.6 h 4 q 0.8,0 1.4,0.6 m 33.55,15.4 v 5 h 3.95 v -5 h -3.95 m 0,-6 h 3.95 v -5 h -3.95 v 5 M 512,220 v 12 q 0,0.85 -0.6,1.45 -0.6,0.55 -1.4,0.55 h -4 q -0.85,0 -1.45,-0.55 Q 504,232.85 504,232 v -11.95 q 0,-0.85 0.55,-1.45 0.6,-0.6 1.45,-0.6 h 4 q 0.8,0 1.4,0.6 0.6,0.6 0.6,1.4 m -4.4,31.7 q 0.6,-0.6 1.45,-0.6 h 24 q 0.8,0 1.4,0.6 0.6,0.6 0.6,1.4 v 18.85 H 535 q 0,5.8 -4.1,9.85 -4.05,4.1 -9.85,4.1 H 521 q -5.8,0 -9.9,-4.1 -4.05,-4.05 -4.05,-9.85 v -18.8 q 0,-0.85 0.55,-1.45 m 11.25,6.25 q 0.9,-0.95 2.15,-0.95 1.25,0 2.1,0.95 0.9,0.95 0.9,2.3 v 7.45 q 0,1.35 -0.9,2.3 -0.85,1 -2.1,1 -1.25,0 -2.15,-1 -0.85,-0.95 -0.85,-2.3 v -7.45 q 0,-1.35 0.85,-2.3 m -8.8,6 H 515 v 3.75 q 0.05,2.5 1.65,4.3 1.8,2.05 4.35,2 2.6,0.05 4.4,-2.05 l -0.1,0.15 q 1.7,-1.85 1.7,-4.4 v -3.75 h 5.05 v -9.85 h -22 v 9.85 m 40.9,47 q 0,-5 5,-5 h 33 v 24 h -38 v -19 m -12,0 v 19 h -38 v -24 h 33 q 5,0 5,5 m 86.35,2.4 q -0.95,-0.8 -2.2,-0.8 -1.3,0 -2.1,0.55 -0.8,0.55 -1.5,1.6 l 1.75,1.05 q 0.8,-1.35 1.75,-1.35 0.5,0 0.8,0.35 0.35,0.3 0.35,0.8 0,0.5 -0.4,1.05 l -1.2,1.4 -2.9,2.9 v 1.65 h 6.9 v -1.95 h -3.85 l 1.75,-1.85 1.45,-1.75 0.35,-1.45 q 0,-1.4 -0.95,-2.2 M 516.95,316 q 0,0.8 -0.4,1.2 l -1.5,0.35 h -1.6 v -2.9 h 1.6 q 1.1,0 1.5,0.3 0.4,0.3 0.4,1.05 m 1.25,-2.45 q -0.95,-0.8 -3.25,-0.8 h -3.7 v 9.8 h 2.2 v -3.1 h 1.5 l 2.15,3.1 h 2.7 l -2.45,-3.5 q 1.85,-0.7 1.85,-3.05 0,-1.7 -1,-2.45 m 43.75,-0.8 v 9.8 h 6.35 v -1.95 h -4.15 v -7.85 h -2.2 m -39.4,1.9 v 7.9 h 2.1 v -9.8 h -3.95 v 1.9 h 1.85 m 116.4,-3.7 v 19 h -38 v -24 h 33 q 5,0 5,5 M 279.45,1.6 Q 280,2.2 280,3.05 V 31 q 0,0.85 -0.55,1.45 Q 278.85,33 278,33 h -2 L 260,17 276,0.99999998 h 2 q 0.85,0 1.45,0.60000002 m 293.5,310.95 q -1.3,0 -2.1,0.55 -0.8,0.55 -1.5,1.6 l 1.75,1.05 q 0.8,-1.35 1.75,-1.35 0.5,0 0.8,0.35 0.35,0.3 0.35,0.8 0,0.5 -0.4,1.05 l -1.2,1.4 -2.9,2.9 v 1.65 h 6.9 v -1.95 h -3.85 l 1.75,-1.85 1.45,-1.75 0.35,-1.45 q 0,-1.4 -0.95,-2.2 -0.95,-0.8 -2.2,-0.8 m 40.7,2.1 1.5,0.3 q 0.4,0.3 0.4,1.05 0,0.8 -0.4,1.2 -0.4,0.35 -1.5,0.35 h -1.6 v -2.9 h 1.6 m 3.15,-1.1 q -0.95,-0.8 -3.25,-0.8 h -3.7 v 9.8 h 2.2 v -3.1 h 1.5 l 2.15,3.1 h 2.7 l -2.45,-3.5 q 1.85,-0.7 1.85,-3.05 0,-1.7 -1,-2.45 M 259.05,60.1 v 4 h -4 v -12 h 12 v 4 h -4 l 4,4 v 4 h -4 l -4,-4 m 16,0 4,-4 h -4 v -4 h 12 v 12 h -4 v -4 l -4,4 h -4 v -4 m -20,12 h 4 v 4 l 4,-4 h 4 v 4 l -4,4 h 4 v 4 h -12 v -12 m 20,0 h 4 l 4,4 v -4 h 4 v 12 h -12 v -4 h 4 l -4,-4 v -4 M 210.55,1.6 q 0.6,-0.60000002 1.45,-0.60000002 h 2 L 230,17 214,33 h -2 q -0.85,0 -1.45,-0.55 Q 210,31.85 210,31 V 3.05 Q 210,2.2 210.55,1.6 M 183.4,16.55 q 0.6,0.6 0.6,1.45 v 2 L 170,34 156,20 v -2 q 0,-0.85 0.55,-1.45 Q 157.15,16 158,16 h 6 V 2 Q 164,1.15 164.55,0.54999998 165.15,-1.6884542e-8 166,-1.6884542e-8 h 7.95 q 0.85,0 1.45,0.549999996884542 Q 176,1.15 176,2 v 14 h 5.95 q 0.85,0 1.45,0.55 m 1.65,45.3 q 0,0.8 -0.65,1.4 l -10.05,10.1 4.25,4.3 q 0.6,0.6 0.65,1.45 -0.05,0.85 -0.65,1.5 L 177.2,82 H 157.05 V 61.85 l 1.4,-1.45 q 0.6,-0.6 1.5,-0.65 0.85,0.05 1.45,0.65 l 4.35,4.35 10.05,-10.1 q 0.6,-0.6 1.4,-0.65 0.85,0.05 1.45,0.65 l 5.7,5.7 q 0.6,0.65 0.7,1.5 m 52,-9.75 v 4 l -4,4 h 4 v 4 h -12 v -12 h 4 v 4 l 4,-4 h 4 m -20,0 v 12 h -12 v -4 h 4 l -4,-4 v -4 h 4 l 4,4 v -4 h 4 m -12,20 h 12 v 12 h -4 v -4 l -4,4 h -4 v -4 l 4,-4 h -4 v -4 m 28,4 4,4 v 4 h -4 l -4,-4 v 4 h -4 v -12 h 12 v 4 h -4 M 228,106 h -16 v 8 h 16 v -8 m -6,6 v -4 h 4 v 4 h -4 m 14,-2 v 24 h -32 v -32 h 24 l 8,8 m -28,20 h 24 v -12 h -24 v 12 m -23.55,-18.85 1.05,1.95 0.05,0.1 q 3.15,6.25 -0.55,12.75 -3.7,6.8 -11.05,7.05 -0.6,0.05 -1.1,-0.35 -0.45,-0.4 -0.5,-1.05 -0.55,-3.6 -0.45,-5.3 0.05,-0.6 0.4,-1.05 0.4,-0.45 1.05,-0.45 3.05,-0.25 4.6,-2.85 L 177.9,122 q 1.5,-2.5 0.4,-5 -1.45,-3.4 -4.9,-3.6 h -0.05 q -2.45,-0.05 -4.2,1.7 2.45,1.4 3.45,2.3 0.4,0.35 0.5,0.85 l -0.05,1 -0.7,0.75 -13.9,8.05 -1.1,0.15 q -0.55,-0.05 -0.95,-0.5 l -0.35,-1 0.05,-16.3 0.2,-0.85 0.6,-0.6 0.05,-0.05 0.75,-0.2 0.75,0.2 3.5,2 q 1.9,-2.55 4.25,-3.9 v -0.05 q 4.75,-2.85 9.9,-1.55 4.95,1.2 8.2,5.6 l 0.15,0.15 M 167.05,183 h -6 q -0.85,0 -1.45,-0.55 -0.55,-0.6 -0.55,-1.45 v -10 h -4 v -4 l 16,-16 16,16 v 4 h -4 v 10 q 0,0.85 -0.6,1.45 -0.6,0.55 -1.4,0.55 h -6 v -12 h -8 v 12 M 233,155.9 v 15.1 0.35 q -0.3,2.75 -2,4.5 h -0.1 q -1.8,2 -4.25,2.2 h -0.05 q -2.55,0.25 -4.25,-1.55 -1.65,-1.6 -1.4,-4.3 0.25,-2.4 2,-4.2 1.7,-1.7 3.7,-2 H 228 v -5 h -10 v 17 q 0.1,1.9 -2.05,3.8 l -0.05,0.15 q -1.8,1.75 -4.15,2 h -0.05 q -2.6,0.25 -4.25,-1.45 -1.7,-1.65 -1.4,-4.2 0.2,-2.5 1.95,-4.35 l 0.1,-0.05 q 1.65,-1.6 3.6,-2 h 0.05 L 214,172 v -16 q -0.1,-3.1 2.45,-3 H 230 q 3,0 3,2.9 m 46,-49.95 h -16 v 8 h 16 v -8 m 8,8 v 18 q 0,0.85 -0.6,1.45 -0.6,0.55 -1.4,0.55 h -28 q -0.85,0 -1.45,-0.55 -0.55,-0.6 -0.55,-1.45 v -18 h 4 v -8 q 0,-1.65 1.15,-2.8 1.2,-1.2 2.85,-1.2 h 16 q 1.65,0 2.8,1.2 1.2,1.2 1.2,2.8 v 8 h 4 m -14,12 h 2 v -4 h -8 v 4 h 2 v 4 h 4 v -4 m -8.8,28.55 q 0.45,-1.55 2.25,-1.5 H 280 q 3,0 3,2.9 v 15.1 0.35 l -0.3,1.65 -6.8,-6.8 0.75,-0.2 H 278 v -5 h -7.3 l -6.5,-6.5 m -4.7,1.05 q 0.6,-0.6 1.45,-0.6 0.85,0 1.4,0.6 l 23,23 q 0.6,0.55 0.6,1.4 0,0.85 -0.6,1.45 -0.55,0.55 -1.4,0.55 -0.85,0 -1.45,-0.55 l -23,-23 q -0.55,-0.6 -0.55,-1.45 0,-0.85 0.55,-1.4 m -1.5,18.4 0.1,-0.05 q 1.65,-1.6 3.6,-2 h 0.05 L 264,172 v -6.3 l 4,4 v 8.3 q 0.1,1.9 -2.05,3.8 l -0.05,0.15 q -1.8,1.75 -4.15,2 h -0.05 q -2.6,0.25 -4.25,-1.45 -1.7,-1.65 -1.4,-4.2 0.2,-2.5 1.95,-4.35 m 12.95,-1.3 5.45,5.45 q -2.45,0.1 -4.05,-1.6 -1.5,-1.45 -1.4,-3.85 M 85,11 q 0.85,0 1.45,0.6 Q 87,12.2 87,13.05 V 21 q 0,0.85 -0.55,1.45 Q 85.85,23 85,23 H 71 v 6 q 0,0.85 -0.55,1.45 Q 69.85,31 69,31 H 67 L 53,17 67,3 h 2 Q 69.85,3 70.45,3.6 71,4.2 71,5.05 V 11 h 14 m 49,3 v 2 q 0,0.85 -0.6,1.45 Q 132.8,18 131.95,18 H 126 v 14 q 0,0.85 -0.6,1.45 Q 124.8,34 123.95,34 H 116 q -0.85,0 -1.45,-0.55 Q 114,32.85 114,32 V 18 h -6 q -0.85,0 -1.45,-0.55 Q 106,16.85 106,16 V 14 L 120,-1.6884542e-8 134,14 m -20.6,40.7 q 0.6,-0.6 1.45,-0.65 0.85,0 1.45,0.6 l 10.05,10.1 4.3,-4.3 q 0.6,-0.6 1.45,-0.65 0.9,0.05 1.5,0.65 l 1.45,1.45 v 20.15 h -20.2 l -1.4,-1.45 q -0.6,-0.6 -0.65,-1.45 0.05,-0.85 0.65,-1.5 l 4.3,-4.3 -10.05,-10.1 q -0.6,-0.6 -0.65,-1.35 0.05,-0.9 0.65,-1.5 l 5.7,-5.7 M 82.05,76.3 Q 81.2,76.25 80.6,75.6 L 76.25,71.3 66.2,81.35 Q 65.6,82 64.8,82.05 63.95,82 63.35,81.35 l -5.7,-5.7 Q 57.05,75.05 57,74.2 57,73.4 57.6,72.75 L 67.65,62.7 63.4,58.4 q -0.6,-0.6 -0.65,-1.45 0.05,-0.9 0.65,-1.5 l 1.4,-1.4 H 85 V 74.2 l -1.45,1.4 q -0.6,0.65 -1.5,0.7 M 19,5.05 Q 19,4.2 19.55,3.6 20.15,3 21,3 h 2 L 37,17 23,31 H 21 Q 20.15,31 19.55,30.45 19,29.85 19,29 V 23 H 5 Q 4.15,23 3.55,22.45 3,21.85 3,21 V 13.05 Q 3,12.2 3.55,11.6 4.15,11 5,11 H 19 V 5.05 m 5.2,57.65 10.1,10.1 q 0.6,0.6 0.65,1.45 0,0.8 -0.6,1.4 L 28.6,81.4 Q 28,82 27.15,82.05 26.3,82 25.7,81.4 L 15.6,71.3 11.3,75.6 Q 10.7,76.2 9.85,76.3 9,76.3 8.4,75.7 L 6.95,74.25 v -20.2 h 20.2 l 1.45,1.45 q 0.6,0.6 0.6,1.45 -0.05,0.8 -0.65,1.4 L 24.2,62.7 m 37.35,46.9 q 0.6,0.05 1.05,0.5 l 5,6 10,-11.85 q 0.35,-0.45 0.95,-0.55 0.6,-0.05 1.05,0.35 l 5.95,5.1 q 0.45,0.35 0.5,0.95 0.05,0.6 -0.3,1.1 l -17,20.3 -0.7,0.45 h -0.8 L 66.5,131.5 54.45,117.1 q -0.4,-0.5 -0.35,-1.05 0.05,-0.65 0.5,-1 l 5.9,-5.1 q 0.5,-0.4 1.05,-0.35 M 21,102 37,118 21,134 h -4 v -8 h -4 v 4 H 5 V 114 Q 5,112.35 6.15,111.2 7.35,110 9,110 h 8 v -8 h 4 m 11.15,49 q 0.9,0.9 0.9,2.1 v 28 q 0,1.25 -0.9,2.15 v 0.05 q -0.9,0.8 -2.1,0.8 h -21 q -1.25,0 -2.1,-0.8 L 6.9,183.25 q -0.85,-0.9 -0.85,-2.15 v -27.95 q 0,-1.25 0.85,-2.1 V 151 q 0.9,-0.9 2.15,-0.9 h 21 q 1.2,0 2.1,0.9 m -5.1,5.1 h -15 v 20 h 15 v -20 M 58.9,151.05 V 151 q 0.9,-0.9 2.15,-0.9 h 17 q 1.2,0 2.1,0.9 0.9,0.9 0.9,2.1 v 28 q 0,1.25 -0.9,2.15 v 0.05 q -0.9,0.8 -2.1,0.8 h -17 q -1.25,0 -2.1,-0.8 l -0.05,-0.05 q -0.85,-0.9 -0.85,-2.15 v -27.95 q 0,-1.25 0.85,-2.1 m 5.15,5.05 v 20 h 11 v -20 h -11 M 134,102 q 0.8,0 1.4,0.6 0.6,0.6 0.6,1.4 v 6 l -8,8 8,8 v 6 q 0,0.85 -0.6,1.45 -0.6,0.55 -1.4,0.55 h -6 l -8,-8 -8,8 h -6 q -0.85,0 -1.45,-0.55 Q 104,132.85 104,132 v -6 l 8,-8 -8,-8 v -5.95 q 0,-0.85 0.55,-1.45 0.6,-0.6 1.45,-0.6 h 6 l 8,8 8,-8 h 6 m -14,55.75 -1,-0.05 v 20.05 l 1,-0.05 q 3.5,-0.3 6.1,-2.9 h 0.05 q 2.9,-2.9 2.9,-7.1 0,-4.15 -2.9,-7.1 -2.65,-2.55 -6.15,-2.85 m -12.3,-1.35 v -0.05 q 4.7,-4.65 11.3,-4.65 l 1,0.05 q 5.95,0.3 10.3,4.65 4.7,4.7 4.7,11.3 0,6.65 -4.7,11.35 -4.35,4.3 -10.3,4.65 h -1 q -6.6,0 -11.3,-4.65 -4.7,-4.7 -4.7,-11.35 0,-6.6 4.65,-11.3 h 0.05 M 154,202 h 2 l 14,14 v -11.95 q 0,-0.85 0.55,-1.45 0.6,-0.6 1.45,-0.6 h 2 l 16,16 -16,16 h -2 q -0.85,0 -1.45,-0.55 Q 170,232.85 170,232 v -12 l -14,14 h -2 q -0.85,0 -1.45,-0.55 Q 152,232.85 152,232 v -27.95 q 0,-0.85 0.55,-1.45 0.6,-0.6 1.45,-0.6 m -19.6,1.6 q 0.6,0.6 0.6,1.4 v 26 q 0,0.85 -0.6,1.45 -0.6,0.55 -1.4,0.55 h -26 q -0.85,0 -1.45,-0.55 Q 105,231.85 105,231 v -25.95 q 0,-0.85 0.55,-1.45 0.6,-0.6 1.45,-0.6 h 26 q 0.8,0 1.4,0.6 m -58.25,58.9 q 0.35,-0.6 0.2,-1.25 -0.15,-0.65 -0.8,-0.95 l -1.25,-0.2 q -0.65,0.15 -0.95,0.8 -0.3,0.55 -0.15,1.2 0.15,0.65 0.75,1 l 1.2,0.15 1,-0.75 m 2.55,-1.85 q 0.15,0.65 0.75,0.95 l 1.25,0.15 1,-0.7 0.15,-1.25 q -0.15,-0.65 -0.75,-0.95 -0.65,-0.4 -1.25,-0.25 -0.7,0.2 -1,0.8 -0.3,0.6 -0.15,1.25 m 3.05,-8.7 q 0.6,0.3 0.75,0.95 l 3.4,12.5 -0.15,1.25 -1,0.75 -28.35,7.5 -1.2,-0.15 q -0.6,-0.3 -0.75,-0.95 l -3.4,-12.45 q -0.15,-0.7 0.15,-1.3 0.35,-0.55 1,-0.75 l 12.6,-3.35 -1.05,-3.9 q -0.2,-0.65 0.15,-1.2 l 0.25,-0.4 -0.05,-0.2 0.8,-0.2 1.25,0.2 q 0.55,0.35 0.75,1 l 1.05,3.9 12.6,-3.35 1.2,0.15 m 29.2,11.7 -0.8,-3.1 -3.15,0.8 0.8,3.1 -3.15,0.85 0.85,3.1 3.15,-0.85 0.85,3.15 3.15,-0.8 -0.85,-3.15 3.1,-0.85 -0.85,-3.1 -3.1,0.85 m 3.15,-13.4 0.8,-0.2 1.25,0.2 q 0.55,0.35 0.75,1 l 1.05,3.9 12.6,-3.35 1.2,0.15 q 0.6,0.3 0.75,0.95 l 3.4,12.5 -0.15,1.25 -1,0.75 -28.35,7.5 -1.2,-0.15 q -0.6,-0.3 -0.75,-0.95 l -3.4,-12.45 q -0.15,-0.7 0.15,-1.3 0.35,-0.55 1,-0.75 l 12.6,-3.35 -1.05,-3.9 q -0.2,-0.65 0.15,-1.2 l 0.25,-0.4 -0.05,-0.2 m -35.25,-38.1 2.3,-3.3 1.5,1.3 0.05,0.05 q 3.3,3.35 3.3,8.05 0,4.75 -3.3,8.05 l -0.1,0.1 -1.45,1.25 -2.3,-3.3 0.9,-0.75 0.05,-0.05 q 2.2,-2.2 2.2,-5.3 0,-3.05 -2.2,-5.25 l -0.05,-0.1 -0.9,-0.75 M 91,272 v 14 l -0.3,0.7 -0.7,0.3 h -2 l -0.7,-0.3 Q 87,286.4 87,286 V 275 H 85 L 84.3,274.7 84,274 v -2 q 0,-0.4 0.3,-0.7 0.3,-0.3 0.7,-0.3 h 5 q 0.4,0 0.7,0.3 L 91,272 m 40.1,-13.15 q -0.65,-0.4 -1.25,-0.25 -0.7,0.2 -1,0.8 -0.3,0.6 -0.15,1.25 0.15,0.65 0.75,0.95 l 1.25,0.15 q 0.6,-0.15 1,-0.7 0.3,-0.6 0.15,-1.25 -0.15,-0.65 -0.75,-0.95 m -5.95,4.4 1,-0.75 q 0.35,-0.6 0.2,-1.25 -0.15,-0.65 -0.8,-0.95 l -1.25,-0.2 q -0.65,0.15 -0.95,0.8 -0.3,0.55 -0.15,1.2 0.15,0.65 0.75,1 l 1.2,0.15 m 25.9,-1.9 q -0.15,-0.7 0.15,-1.3 0.35,-0.55 1,-0.75 l 12.6,-3.35 -1.05,-3.9 q -0.2,-0.65 0.15,-1.2 l 0.25,-0.4 -0.05,-0.2 0.8,-0.2 1.25,0.2 q 0.55,0.35 0.75,1 l 1.05,3.9 12.6,-3.35 1.2,0.15 q 0.6,0.3 0.75,0.95 l 3.4,12.5 -0.15,1.25 q -0.4,0.55 -1,0.75 l -28.35,7.5 -1.2,-0.15 q -0.6,-0.3 -0.75,-0.95 l -3.4,-12.45 m -20.75,9.95 q 0.3,-0.3 0.7,-0.3 h 8 q 0.4,0 0.7,0.3 l 0.3,0.7 v 8 l -0.3,0.7 q -0.3,0.3 -0.7,0.3 h -5 v 2 h 5 q 0.4,0 0.7,0.3 l 0.3,0.7 v 2 l -0.3,0.7 q -0.3,0.3 -0.7,0.3 h -8 q -0.4,0 -0.7,-0.3 -0.3,-0.3 -0.3,-0.7 v -8 q 0,-0.4 0.3,-0.7 0.3,-0.3 0.7,-0.3 h 5 v -2 h -5 q -0.4,0 -0.7,-0.3 -0.3,-0.3 -0.3,-0.7 v -2 q 0,-0.4 0.3,-0.7 m 24.35,-6 0.85,3.1 3.15,-0.85 0.85,3.15 3.15,-0.8 -0.85,-3.15 3.1,-0.85 -0.85,-3.1 -3.1,0.85 -0.8,-3.1 -3.15,0.8 0.8,3.1 -3.15,0.85 m -82.6,-63.2 q 0.8,0 1.4,0.6 0.6,0.6 0.6,1.4 v 28 q 0,0.85 -0.6,1.45 -0.6,0.55 -1.4,0.55 h -2 l -12,-12 h -4 v -8 h 4 l 12,-12 h 2 m -50,0 q 0.8,0 1.4,0.6 0.6,0.6 0.6,1.4 v 28 q 0,0.85 -0.6,1.45 -0.6,0.55 -1.4,0.55 h -2 l -12,-12 h -4 v -8 h 4 l 12,-12 h 2 m 42,60.7 -3.1,0.85 -0.8,-3.1 -3.15,0.8 0.8,3.1 -3.15,0.85 0.85,3.1 3.15,-0.85 0.85,3.15 3.15,-0.8 -0.85,-3.15 3.1,-0.85 -0.85,-3.1 m -37.5,5.8 Q 26,269.2 26,270 q 0,0.85 0.55,1.4 0.6,0.6 1.45,0.6 0.8,0 1.4,-0.6 0.6,-0.55 0.6,-1.4 0,-0.8 -0.6,-1.4 -0.6,-0.6 -1.4,-0.6 -0.85,0 -1.45,0.6 M 35,268 q -0.85,0 -1.45,0.6 -0.55,0.6 -0.55,1.4 0,0.85 0.55,1.4 0.6,0.6 1.45,0.6 0.8,0 1.4,-0.6 0.6,-0.55 0.6,-1.4 0,-0.8 -0.6,-1.4 Q 35.8,268 35,268 M 11,264 H 7 v 3.95 H 3 v 4 h 4 v 4 h 4 v -4 h 3.95 v -4 H 11 V 264 M 18.55,253.6 19,253.25 V 253 h 1 q 0.8,0 1.4,0.6 0.6,0.6 0.6,1.4 v 5 h 16 q 0.8,0 1.4,0.6 0.6,0.6 0.6,1.4 v 16 q 0,0.85 -0.6,1.45 Q 38.8,280 38,280 H 2 Q 1.15,280 0.55,279.45 0,278.85 0,278 V 262.05 Q 0,261.2 0.55,260.6 1.15,260 2,260 h 16 v -4.95 q 0,-0.85 0.55,-1.45 M 71,301 q 6.65,0 11.3,4.65 4.7,4.7 4.7,11.35 0,6.65 -4.7,11.3 Q 77.65,333 71,333 64.35,333 59.65,328.3 55,323.65 55,317 55,310.35 59.65,305.65 64.35,301 71,301 m -48.65,9 H 19.6 L 14,323 h 3.05 l 1.2,-2.8 h 5.45 l 1.2,2.8 H 28 l -5.65,-13 m 49.1,8.6 2,0.25 q 0.7,0.25 0.7,1.2 0,0.85 -0.65,1.2 l -1.8,0.3 h -1.9 v -2.95 h 1.65 m -1.65,-5.1 h 1.3 l 1.8,0.25 q 0.5,0.3 0.5,1.15 0,0.85 -0.55,1.15 l -1.75,0.25 h -1.3 v -2.8 M 71.85,311 H 67 v 13 h 5.5 q 2.55,0 3.6,-1.2 0.9,-1.05 0.9,-2.4 0,-1.25 -0.7,-2.05 -0.7,-0.85 -1.85,-1.1 l 0.45,-0.2 0.45,-0.35 q 0.95,-0.7 0.95,-2.25 0,-1.25 -0.85,-2.25 L 74.1,311.35 71.85,311 M 32.3,305.65 q 4.7,4.7 4.7,11.35 0,6.65 -4.7,11.3 Q 27.65,333 21,333 14.35,333 9.65,328.3 5,323.65 5,317 5,310.35 9.65,305.65 14.35,301 21,301 q 6.65,0 11.3,4.65 M 19.35,317.7 21,313.85 22.6,317.7 H 19.35 M 132.3,305.65 q 4.7,4.7 4.7,11.35 0,6.65 -4.7,11.3 -4.65,4.7 -11.3,4.7 -6.65,0 -11.35,-4.7 Q 105,323.65 105,317 q 0,-6.65 4.65,-11.35 4.7,-4.65 11.35,-4.65 6.65,0 11.3,4.65 M 306,204 q 0,-0.8 0.6,-1.4 0.6,-0.6 1.4,-0.6 h 4 q 0.85,0 1.45,0.6 0.55,0.6 0.55,1.45 V 218 232 q 0,0.85 -0.55,1.45 -0.6,0.55 -1.45,0.55 h -4 q -0.8,0 -1.4,-0.55 Q 306,232.85 306,232 V 204 M 127.65,311 h -3.6 l -2.55,3.85 -2.6,-3.85 h -3.6 l 4.25,6.35 L 115,324 h 3.6 l 2.9,-4.25 2.85,4.25 H 128 l -4.5,-6.7 4.15,-6.3 M 283.4,202.6 q 0.6,0.6 0.6,1.4 v 28 q 0,0.85 -0.6,1.45 -0.6,0.55 -1.4,0.55 h -4 q -0.85,0 -1.45,-0.55 Q 276,232.85 276,232 v -14 l -16,16 h -2 q -0.85,0 -1.45,-0.55 Q 256,232.85 256,232 v -27.95 q 0,-0.85 0.55,-1.45 0.6,-0.6 1.45,-0.6 h 2 l 16,16 v -13.95 q 0,-0.85 0.55,-1.45 0.6,-0.6 1.45,-0.6 h 4 q 0.8,0 1.4,0.6 m -43.95,0 q 0.55,0.6 0.55,1.45 V 232 q 0,0.85 -0.55,1.45 -0.6,0.55 -1.45,0.55 h -2 l -14,-14 v 12 q 0,0.85 -0.55,1.45 -0.6,0.55 -1.45,0.55 h -2 l -16,-16 16,-16 h 2 q 0.85,0 1.45,0.6 0.55,0.6 0.55,1.45 V 216 l 14,-14 h 2 q 0.85,0 1.45,0.6 M 264,263 h -4 v 16 h 16 v -4 h 4 v 6 q 0,0.85 -0.55,1.45 H 279.4 Q 278.8,283 278,283 h -20 q -0.85,0 -1.45,-0.55 Q 256,281.85 256,281 v -19.95 q 0,-0.85 0.55,-1.45 0.6,-0.6 1.45,-0.6 h 6 v 4 m 4,-9 h 16 q 0.4,0 0.7,0.3 l 0.3,0.7 v 16 l -0.3,0.7 -0.7,0.3 -0.7,-0.3 -3.3,-3.3 -7.3,7.3 -0.7,0.3 -0.7,-0.3 -8,-8 q -0.3,-0.3 -0.3,-0.7 0,-0.4 0.3,-0.7 l 7.3,-7.3 -3.3,-3.3 q -0.3,-0.3 -0.3,-0.7 0,-0.4 0.3,-0.7 0.3,-0.3 0.7,-0.3 m -28.3,32.7 q -0.3,0.3 -0.7,0.3 h -2 q -0.4,0 -0.7,-0.3 -0.3,-0.3 -0.3,-0.7 v -5 h -5 q -0.4,0 -0.7,-0.3 -0.3,-0.3 -0.3,-0.7 v -8 q 0,-0.4 0.3,-0.7 0.3,-0.3 0.7,-0.3 h 2 q 0.4,0 0.7,0.3 l 0.3,0.7 v 5 h 2 v -5 q 0,-0.4 0.3,-0.7 0.3,-0.3 0.7,-0.3 h 2 q 0.4,0 0.7,0.3 l 0.3,0.7 v 14 l -0.3,0.7 m -63.35,-25.45 q -0.15,-0.65 -0.8,-0.95 l -1.25,-0.2 q -0.65,0.15 -0.95,0.8 -0.3,0.55 -0.15,1.2 0.15,0.65 0.75,1 l 1.2,0.15 q 0.65,-0.2 1,-0.75 0.35,-0.6 0.2,-1.25 m 2.35,-0.6 q 0.15,0.65 0.75,0.95 l 1.25,0.15 1,-0.7 0.15,-1.25 q -0.15,-0.65 -0.75,-0.95 -0.65,-0.4 -1.25,-0.25 -0.7,0.2 -1,0.8 -0.3,0.6 -0.15,1.25 m 11,10.65 0.3,0.7 v 14 l -0.3,0.7 -0.7,0.3 h -8 l -0.7,-0.3 Q 180,286.4 180,286 v -2 q 0,-0.4 0.3,-0.7 0.3,-0.3 0.7,-0.3 h 5 v -2 h -5 l -0.7,-0.3 Q 180,280.4 180,280 v -2 q 0,-0.4 0.3,-0.7 0.3,-0.3 0.7,-0.3 h 5 v -2 h -5 l -0.7,-0.3 Q 180,274.4 180,274 v -2 q 0,-0.4 0.3,-0.7 0.3,-0.3 0.7,-0.3 h 8 q 0.4,0 0.7,0.3 m 24.35,-8.5 -3.1,0.85 -0.8,-3.1 -3.15,0.8 0.8,3.1 -3.15,0.85 0.85,3.1 3.15,-0.85 0.85,3.15 3.15,-0.8 -0.85,-3.15 3.1,-0.85 -0.85,-3.1 m 15.4,-1.2 1.25,0.15 1,-0.7 0.15,-1.25 q -0.15,-0.65 -0.75,-0.95 -0.65,-0.4 -1.25,-0.25 -0.7,0.2 -1,0.8 -0.3,0.6 -0.15,1.25 0.15,0.65 0.75,0.95 m 2.3,-9.65 q 0.6,0.3 0.75,0.95 l 3.4,12.5 -0.15,1.25 -1,0.75 -28.35,7.5 -1.2,-0.15 q -0.6,-0.3 -0.75,-0.95 l -3.4,-12.45 q -0.15,-0.7 0.15,-1.3 0.35,-0.55 1,-0.75 l 12.6,-3.35 -1.05,-3.9 q -0.2,-0.65 0.15,-1.2 l 0.25,-0.4 -0.05,-0.2 0.8,-0.2 1.25,0.2 q 0.55,0.35 0.75,1 l 1.05,3.9 12.6,-3.35 1.2,0.15 m -8.55,10.15 q 0.15,0.65 0.75,1 l 1.2,0.15 1,-0.75 q 0.35,-0.6 0.2,-1.25 -0.15,-0.65 -0.8,-0.95 l -1.25,-0.2 q -0.65,0.15 -0.95,0.8 -0.3,0.55 -0.15,1.2 m 9.1,43.55 q 4.7,4.7 4.7,11.35 0,6.65 -4.7,11.3 -4.65,4.7 -11.3,4.7 -6.65,0 -11.35,-4.7 Q 205,323.65 205,317 q 0,-6.65 4.65,-11.35 4.7,-4.65 11.35,-4.65 6.65,0 11.3,4.65 m -63.7,5.45 h -3.2 l 4.6,8.05 v 5.25 h 2.95 v -5.25 l 4.6,-8.05 h -3.2 l -2.9,4.95 -2.85,-4.95 m 48.65,0 v 2.55 h 2.5 v 10.75 h 2.85 v -13.3 h -5.35 M 171,301 q 6.65,0 11.3,4.65 4.7,4.7 4.7,11.35 0,6.65 -4.7,11.3 -4.65,4.7 -11.3,4.7 -6.65,0 -11.35,-4.7 Q 155,323.65 155,317 q 0,-6.65 4.65,-11.35 Q 164.35,301 171,301 m 111.3,27.3 q -4.65,4.7 -11.3,4.7 -6.65,0 -11.35,-4.7 Q 255,323.65 255,317 q 0,-6.65 4.65,-11.35 4.7,-4.65 11.35,-4.65 6.65,0 11.3,4.65 4.7,4.7 4.7,11.35 0,6.65 -4.7,11.3 m -8.85,-16.4 q -1.3,-1.1 -3,-1.1 -1.7,0 -2.85,0.75 -1.1,0.75 -2.05,2.2 l 2.4,1.4 q 1.1,-1.8 2.35,-1.8 0.7,0 1.15,0.45 0.45,0.45 0.45,1.1 0,0.7 -0.5,1.4 l -1.7,1.9 -3.9,4 v 2.2 h 9.35 v -2.65 h -5.25 l 2.4,-2.5 1.95,-2.4 q 0.5,-0.95 0.5,-1.95 0,-1.9 -1.3,-3"
       id="path4"
       inkscape:connector-curvature="0"
       style="fill:#ffffff;stroke:none" />
    <g
       id="g4581"
       transform="matrix(1.1877875,1.1877875,-1.1877875,1.1877875,781.06562,-44.577967)">
      <path
         style="fill:#ffffff;fill-opacity:1;stroke:#ffffff;stroke-width:2;stroke-linejoin:round;stroke-miterlimit:4;stroke-dasharray:none;stroke-opacity:1"
         d="m 29.828125,10.498047 -1.1875,3.5625 c 0.395833,0.395833 0.791667,0.791667 1.1875,1.1875 -3.167318,3.167969 -6.334635,6.335937 -9.501953,9.503906 -1.361107,-1.361324 -2.885509,-2.887462 -3.847656,-3.849609 l -5.083985,2.042968 6.556641,6.556641 L 6.9999997,43 20.326172,31.876953 l 6.271484,6.271485 2.042969,-5.082032 c -0.93893,-0.938324 -2.29846,-2.300465 -3.5625,-3.564453 L 34.580078,20 l 1.1875,1.1875 3.5625,-1.1875 z"
         transform="matrix(0.42095072,-0.42095072,0.42095072,0.42095072,1.0246883,29.137284)"
         id="rect4540-3"
         inkscape:connector-curvature="0"
         sodipodi:nodetypes="cccccccccccccccc" />
    </g>
  </g>
</svg>
